HIERARCHY
ROOT Hips
{
  OFFSET 48.5919 103.418 -17.1117
  CHANNELS 6 Xposition Yposition Zposition Zrotation Xrotation Yrotation
  JOINT Chest
  {
    OFFSET 1.23234e-007 14.8421 1.27323e-009
    CHANNELS 6 Xposition Yposition Zposition Zrotation Xrotation Yrotation
    JOINT Neck
    {
      OFFSET 0.51659 29.8236 6.51843
      CHANNELS 6 Xposition Yposition Zposition Zrotation Xrotation Yrotation
      JOINT Head
      {
        OFFSET 1.16803e-007 7.47049 6.44171e-007
        CHANNELS 6 Xposition Yposition Zposition Zrotation Xrotation Yrotation
        End Site
        {
          OFFSET -4.32676e-008 16.2908 2.16786e-007
        }
      }
    }
    JOINT LeftCollar
    {
      OFFSET 6.64893 27.3161 3.27471
      CHANNELS 6 Xposition Yposition Zposition Zrotation Xrotation Yrotation
      JOINT LeftUpArm
      {
        OFFSET 10.8584 2.41798 -0.945791
        CHANNELS 6 Xposition Yposition Zposition Zrotation Xrotation Yrotation
        JOINT LeftLowArm
        {
          OFFSET 3.77631 -24.5904 -1.70468
          CHANNELS 6 Xposition Yposition Zposition Zrotation Xrotation Yrotation
          JOINT LeftHand
          {
            OFFSET 1.01026 -21.1231 1.74131
            CHANNELS 6 Xposition Yposition Zposition Zrotation Xrotation Yrotation
            End Site
            {
              OFFSET 1.17583e-006 -9.81266 -2.89439e-008
            }
          }
        }
      }
    }
    JOINT RightCollar
    {
      OFFSET -6.11406 27.2248 4.23427
      CHANNELS 6 Xposition Yposition Zposition Zrotation Xrotation Yrotation
      JOINT RightUpArm
      {
        OFFSET -10.4566 2.3285 -0.910794
        CHANNELS 6 Xposition Yposition Zposition Zrotation Xrotation Yrotation
        JOINT RightLowArm
        {
          OFFSET -3.86856 -25.191 -1.74633
          CHANNELS 6 Xposition Yposition Zposition Zrotation Xrotation Yrotation
          JOINT RightHand
          {
            OFFSET -1.04759 -20.6242 1.75213
            CHANNELS 6 Xposition Yposition Zposition Zrotation Xrotation Yrotation
            End Site
            {
              OFFSET -2.03487e-006 -9.50367 -4.31372e-006
            }
          }
        }
      }
    }
  }
  JOINT LeftUpLeg
  {
    OFFSET 9 -3.38008e-006 -5.22997e-009
    CHANNELS 6 Xposition Yposition Zposition Zrotation Xrotation Yrotation
    JOINT LeftLowLeg
    {
      OFFSET -0.575 -51.431 3.90177
      CHANNELS 6 Xposition Yposition Zposition Zrotation Xrotation Yrotation
      JOINT LeftFoot
      {
        OFFSET 2.13082e-007 -43.5882 -3.90177
        CHANNELS 6 Xposition Yposition Zposition Zrotation Xrotation Yrotation
        End Site
        {
          OFFSET 7.44796e-007 -6.93413 15.0046
        }
      }
    }
  }
  JOINT RightUpLeg
  {
    OFFSET -9 6.86154e-007 -3.19535e-009
    CHANNELS 6 Xposition Yposition Zposition Zrotation Xrotation Yrotation
    JOINT RightLowLeg
    {
      OFFSET 0.575 -51.4311 3.90177
      CHANNELS 6 Xposition Yposition Zposition Zrotation Xrotation Yrotation
      JOINT RightFoot
      {
        OFFSET -7.46079e-007 -43.5882 -3.90177
        CHANNELS 6 Xposition Yposition Zposition Zrotation Xrotation Yrotation
        End Site
        {
          OFFSET 4.66716e-007 -6.93413 15.0046
        }
      }
    }
  }
}
MOTION
Frames:	7
Frame Time:	0.0333333
48.5919 103.418 -17.1117 0.51715 0.0281283 -0.553665 1.23234e-007 14.8421 1.27323e-009 -0.579999 -10.1525 -0.970977 0.51659 29.8236 6.51843 -0.72765 9.63045 -0.337542 1.16803e-007 7.47049 6.44171e-007 -0.0361597 0.252361 -0.0047306 6.64893 27.3161 3.27471 -2.94784 5.93879 -4.20517 10.8584 2.41798 -0.945791 95.5866 4.43455 40.7076 3.77631 -24.5904 -1.70468 16.4273 -11.4391 -21.7132 1.01026 -21.1231 1.74131 0.714238 10.1708 0.318324 -6.11406 27.2248 4.23427 -1.96452 7.32629 3.42623 -10.4566 2.3285 -0.910794 -92.678 -3.61244 -46.2835 -3.86856 -25.191 -1.74633 -16.2872 -3.47183 47.4375 -1.04759 -20.6242 1.75213 1.33422 7.95565 -0.289671 9 -3.38008e-006 -5.22997e-009 1.66176 0.366422 7.85616 -0.575 -51.431 3.90177 -2.11552 3.38728 -5.09271 2.13082e-007 -43.5882 -3.90177 -0.0314909 -0.441908 0.000577549 -9 6.86154e-007 -3.19535e-009 -5.21926 0.612933 -14.9442 0.575 -51.4311 3.90177 0.270391 2.44207 -0.372835 -7.46079e-007 -43.5882 -3.90177 -2.5027 0.290524 0.225906 
48.5244 103.413 -17.05 0.366499 -0.145914 -0.474192 1.23234e-007 14.8421 1.27323e-009 -0.480912 -9.95189 -0.998609 0.51659 29.8236 6.51843 -0.844347 9.61574 -0.289581 1.16803e-007 7.47049 6.44171e-007 0.131137 0.242403 -0.0353887 6.64893 27.3161 3.27471 -2.94784 5.93879 -4.20517 10.8584 2.41798 -0.945791 95.4428 4.45249 40.7755 3.77631 -24.5904 -1.70468 16.454 -11.4468 -21.7871 1.01026 -21.1231 1.74131 0.486602 9.84446 0.290383 -6.11406 27.2248 4.23427 -1.96452 7.32629 3.42623 -10.4566 2.3285 -0.910794 -92.6224 -3.57216 -46.2163 -3.86856 -25.191 -1.74633 -16.2896 -3.48023 47.6872 -1.04759 -20.6242 1.75213 1.52654 7.75759 -0.263433 9 -3.38008e-006 -5.22997e-009 1.86962 0.564139 7.97703 -0.575 -51.431 3.90177 -2.15847 3.43641 -5.343 2.13082e-007 -43.5882 -3.90177 0.0976575 -0.554477 -0.0119457 -9 6.86154e-007 -3.19535e-009 -5.0245 0.74271 -14.8445 0.575 -51.4311 3.90177 0.216144 2.63908 -0.547121 -7.46079e-007 -43.5882 -3.90177 -2.43703 0.212806 0.219337 
48.3112 103.392 -16.8228 -0.143319 -0.959817 -0.315902 1.23234e-007 14.8421 1.27323e-009 -0.114128 -9.13234 -1.10486 0.51659 29.8236 6.51843 -0.916599 9.66573 -0.228148 1.16803e-007 7.47049 6.44171e-007 0.348892 0.193994 -0.0428949 6.64893 27.3161 3.27471 -2.94784 5.93879 -4.20517 10.8584 2.41798 -0.945791 95.3683 4.43316 41.0387 3.77631 -24.5904 -1.70468 16.6285 -11.5781 -22.1619 1.01026 -21.1231 1.74131 -0.00725519 9.63496 0.257736 -6.11406 27.2248 4.23427 -1.96452 7.32629 3.42623 -10.4566 2.3285 -0.910794 -92.4989 -3.55894 -46.1855 -3.86856 -25.191 -1.74633 -16.3377 -3.51307 48.1418 -1.04759 -20.6242 1.75213 1.80794 7.6137 -0.236084 9 -3.38008e-006 -5.22997e-009 2.55464 1.58043 8.47868 -0.575 -51.431 3.90177 -2.35835 3.32574 -5.90632 2.13082e-007 -43.5882 -3.90177 0.478896 -0.907518 -0.0487248 -9 6.86154e-007 -3.19535e-009 -4.29511 1.8903 -14.4574 0.575 -51.4311 3.90177 0.073556 2.23521 -1.01885 -7.46079e-007 -43.5882 -3.90177 -2.34678 0.281793 0.211526 
48.3144 103.393 -16.7981 -0.0315804 -0.892871 -0.407366 1.23234e-007 14.8421 1.27323e-009 -0.235825 -9.21487 -0.987535 0.51659 29.8236 6.51843 -0.963748 9.65859 -0.154784 1.16803e-007 7.47049 6.44171e-007 0.446215 0.0113035 -0.00652254 6.64893 27.3161 3.27471 -2.94784 5.93879 -4.20517 10.8584 2.41798 -0.945791 95.3191 4.51113 40.9305 3.77631 -24.5904 -1.70468 16.5851 -11.5744 -21.7114 1.01026 -21.1231 1.74131 -0.173972 9.66314 0.252682 -6.11406 27.2248 4.23427 -1.96452 7.32629 3.42623 -10.4566 2.3285 -0.910794 -92.475 -3.53973 -46.1759 -3.86856 -25.191 -1.74633 -16.3294 -3.49507 48.4848 -1.04759 -20.6242 1.75213 1.63038 7.68927 -0.254486 9 -3.38008e-006 -5.22998e-009 2.38278 1.58736 8.33091 -0.575 -51.431 3.90177 -2.23687 3.20607 -5.71354 2.13082e-007 -43.5882 -3.90177 0.425987 -0.871975 -0.0437168 -9 6.86154e-007 -3.19534e-009 -4.3679 2.07159 -14.4913 0.575 -51.4311 3.90177 0.130665 1.71923 -0.823127 -7.46079e-007 -43.5882 -3.90177 -2.5321 0.270641 0.228466 
48.3127 103.384 -16.85 0.109245 -0.55442 -0.618642 1.23234e-007 14.8421 1.27323e-009 -0.390342 -9.60411 -0.742461 0.51659 29.8236 6.51843 -1.03545 9.45447 -0.190396 1.16803e-007 7.47049 6.44171e-007 0.49246 0.118083 -0.0805468 6.64893 27.3161 3.27471 -2.94784 5.93879 -4.20517 10.8584 2.41798 -0.945791 95.4055 4.59158 40.7514 3.77631 -24.5904 -1.70468 16.5146 -11.5065 -21.6781 1.01026 -21.1231 1.74131 0.154716 9.88732 0.279928 -6.11406 27.2248 4.23427 -1.96452 7.32629 3.42623 -10.4566 2.3285 -0.910794 -92.3078 -3.42425 -45.7224 -3.86856 -25.191 -1.74633 -16.1628 -3.3299 47.764 -1.04759 -20.6242 1.75213 0.245004 7.03602 -0.283305 9 -3.38008e-006 -5.22998e-009 2.20533 1.39662 8.22198 -0.575 -51.431 3.90177 -2.20206 2.84815 -5.35513 2.13082e-007 -43.5882 -3.90177 0.434823 -0.785533 -0.0443822 -9 6.86154e-007 -3.19534e-009 -4.57157 1.29834 -14.5396 0.575 -51.4311 3.90177 0.0579868 2.49243 -0.669576 -7.46079e-007 -43.5882 -3.90177 -2.41295 0.18754 0.216992 
48.2802 103.4 -16.8124 0.0184779 -0.589037 -0.517009 1.23234e-007 14.8421 1.27323e-009 -0.354717 -9.55662 -0.803639 0.51659 29.8236 6.51843 -0.911912 9.28319 -0.254008 1.16803e-007 7.47049 6.44171e-007 0.336206 0.122784 -0.0655583 6.64893 27.3161 3.27471 -2.94784 5.93879 -4.20517 10.8584 2.41798 -0.945791 95.4199 4.64686 40.7705 3.77631 -24.5904 -1.70468 16.5863 -11.598 -21.6714 1.01026 -21.1231 1.74131 0.500201 10.7216 0.343656 -6.11406 27.2248 4.23427 -1.96452 7.32629 3.42623 -10.4566 2.3285 -0.910794 -92.2489 -3.38462 -45.7551 -3.86856 -25.191 -1.74633 -16.1946 -3.35727 47.4512 -1.04759 -20.6242 1.75213 0.846523 7.33729 -0.269436 9 -3.38008e-006 -5.22999e-009 2.32778 1.34559 8.25496 -0.575 -51.431 3.90177 -2.19187 3.07295 -5.58839 2.13082e-007 -43.5882 -3.90177 0.385876 -0.77708 -0.039839 -9 6.86154e-007 -3.19534e-009 -4.49565 1.22207 -14.5197 0.575 -51.4311 3.90177 0.0490007 2.80215 -0.789914 -7.46079e-007 -43.5882 -3.90177 -2.2857 0.189533 0.205396 
48.2661 103.387 -16.8358 0.148104 -0.408289 -0.482748 1.23234e-007 14.8421 1.27324e-009 -0.574186 -9.74209 -0.812566 0.51659 29.8236 6.51843 -0.923652 8.82578 -0.209802 1.16803e-007 7.47049 6.44171e-007 0.311697 0.186229 -0.02493 6.64893 27.3161 3.27471 -2.94784 5.93879 -4.20517 10.8584 2.41798 -0.945791 95.582 4.72979 40.7165 3.77631 -24.5904 -1.70468 16.5835 -11.637 -21.2818 1.01026 -21.1231 1.74131 0.884291 11.5011 0.399584 -6.11406 27.2248 4.23427 -1.96452 7.32629 3.42623 -10.4566 2.3285 -0.910794 -91.9506 -3.33808 -45.8782 -3.86856 -25.191 -1.74633 -16.2719 -3.39016 46.8134 -1.04759 -20.6242 1.75213 0.402903 7.21852 -0.286994 9 -3.38008e-006 -5.23e-009 2.19221 1.20409 8.17384 -0.575 -51.431 3.90177 -2.17634 2.92532 -5.48934 2.13082e-007 -43.5882 -3.90177 0.360721 -0.708656 -0.0373708 -9 6.86154e-007 -3.19533e-009 -4.56002 1.29351 -14.5266 0.575 -51.4311 3.90177 0.0694688 2.27381 -0.770487 -7.46079e-007 -43.5882 -3.90177 -2.46403 0.10816 0.221143 
